# xmcd
#
# Track frame offsets: 
#        150
#        15757
#        30995
#        44640
#        59375
#        74117
#        85287
#        103450
#        120165
#        135102
#
# Disc length: 2043 seconds
#
# Revision: 4
# Processed by: cddbd v1.5.2PL0 Copyright (c) Steve Scherf et al.
# Submitted via: ExactAudioCopy v0.99pb5
#
DISCID=7d07f90a
DTITLE=Highway 101 - Greatest Hits
DYEAR=1990
DGENRE=Country
TTITLE0=The Bed You Made For Me
TTITLE1=Who's Lonely Now
TTITLE2=Whiskey, If You Were A Woman
TTITLE3=Somewhere Tonight
TTITLE4=Someone Else's Trouble Now
TTITLE5=Cry, Cry, Cry
TTITLE6=This Side Of Goodbye
TTITLE7=(Do You Love Me) Just Say Yes
TTITLE8=Honky Tonk Heart
TTITLE9=The Change
EXTD=YEAR: 1990
EXTT0=
EXTT1=
EXTT2=
EXTT3=
EXTT4=
EXTT5=
EXTT6=
EXTT7=
EXTT8=
EXTT9=
PLAYORDER=
